<?xml version="1.0" standalone="no"?>
<!DOCTYPE svg PUBLIC "-//W3C//DTD SVG 20010904//EN"
 "http://www.w3.org/TR/2001/REC-SVG-20010904/DTD/svg10.dtd">
<svg version="1.0" xmlns="http://www.w3.org/2000/svg"
 width="512.000000pt" height="512.000000pt" viewBox="0 0 512.000000 512.000000"
 preserveAspectRatio="xMidYMid meet">
<metadata>
Created by potrace 1.16, written by Peter Selinger 2001-2019
</metadata>
<g transform="translate(0.000000,512.000000) scale(0.100000,-0.100000)"
fill="#000000" stroke="none">
<path d="M2471 5086 c-158 -52 -196 -277 -64 -385 21 -17 43 -31 50 -31 10 0
13 -48 13 -215 l0 -215 -109 0 c-99 0 -110 2 -116 19 -10 34 -91 99 -137 111
-97 27 -206 -15 -254 -96 -91 -154 13 -336 191 -336 91 0 178 53 200 122 6 18
15 20 116 20 l109 0 -2 -281 -3 -282 -195 -112 -195 -113 -40 29 c-22 17 -162
119 -312 227 l-272 197 -1 196 0 197 24 6 c13 3 42 26 64 50 124 135 46 351
-134 372 -41 5 -54 2 -76 -16 -58 -45 -16 -140 61 -140 53 0 69 -92 20 -119
-36 -20 -71 -8 -100 36 -28 43 -70 59 -108 40 -69 -33 -41 -146 52 -206 l37
-24 0 -179 0 -178 -429 0 -430 0 -23 42 c-14 26 -41 54 -72 72 -41 26 -58 30
-115 30 -137 -1 -221 -84 -221 -219 0 -134 85 -219 220 -219 48 0 76 6 107 22
41 21 93 78 93 100 0 9 120 12 464 12 l464 0 283 -206 c156 -114 285 -208 287
-209 1 -1 -44 -29 -100 -61 -57 -32 -115 -71 -130 -85 l-28 -27 0 -196 0 -196
-195 0 -195 0 0 290 c0 361 18 330 -191 330 l-148 0 -23 42 c-14 26 -41 54
-72 72 -86 53 -215 37 -283 -36 -71 -75 -71 -231 0 -306 96 -103 289 -86 352
31 l20 37 93 0 92 0 0 -230 0 -230 -340 0 -339 0 -15 28 c-73 139 -292 151
-382 20 -26 -38 -29 -49 -29 -128 0 -79 3 -90 29 -128 90 -131 309 -119 382
21 l15 27 339 0 340 0 0 -230 0 -230 -89 0 -90 0 -22 40 c-80 141 -309 136
-386 -9 -30 -58 -32 -154 -3 -210 55 -108 196 -151 307 -94 21 11 54 41 73 66
l35 47 146 0 c207 0 189 -31 189 330 l0 290 195 0 195 0 0 -215 c0 -133 4
-223 11 -238 7 -15 56 -50 130 -93 l119 -70 -291 -212 -292 -212 -453 0 -453
0 -22 40 c-80 141 -309 136 -386 -9 -30 -58 -32 -154 -3 -210 55 -108 196
-151 307 -94 21 11 54 41 73 66 l35 47 427 0 428 0 0 -173 0 -173 -45 -32
c-72 -51 -105 -138 -85 -229 16 -70 53 -118 117 -149 107 -53 236 -16 291 83
51 93 35 211 -37 276 -22 19 -48 38 -60 42 -21 6 -21 10 -19 202 l3 196 310
226 310 226 200 -115 200 -116 3 -277 2 -277 -112 0 -113 0 -20 37 c-32 60
-93 96 -171 101 -82 6 -140 -16 -188 -68 -78 -87 -74 -222 9 -305 97 -98 276
-81 344 31 l26 43 113 1 112 0 0 -187 0 -188 -37 -20 c-58 -31 -96 -93 -101
-164 -11 -148 76 -245 218 -245 142 0 229 97 218 245 -5 71 -43 133 -101 164
l-37 20 0 188 0 187 113 0 112 -1 26 -43 c68 -112 247 -129 344 -31 83 83 87
218 9 305 -48 52 -106 74 -188 68 -78 -5 -139 -41 -171 -101 l-20 -37 -113 0
-112 0 2 277 3 277 200 116 200 116 310 -227 310 -226 3 -195 2 -195 -30 -13
c-43 -18 -97 -82 -111 -132 -25 -93 12 -198 87 -251 32 -23 56 -30 107 -34 58
-5 73 -2 120 21 149 73 166 283 32 378 l-45 32 0 173 0 173 428 0 427 0 35
-47 c78 -104 225 -123 324 -41 59 48 79 98 74 184 -3 61 -8 79 -33 115 -88
124 -290 123 -368 -3 l-30 -48 -452 0 -452 0 -292 212 -291 212 120 70 c122
72 149 100 133 144 -11 30 -46 62 -68 62 -20 0 -157 -77 -672 -374 l-153 -88
-370 213 -370 213 0 430 1 431 369 213 370 212 370 -212 369 -213 1 -262 c0
-258 0 -262 23 -288 46 -54 137 -27 137 41 l0 24 195 0 195 0 0 -290 c0 -361
-18 -330 189 -330 l146 0 35 -47 c78 -104 225 -123 324 -41 108 89 103 272
-10 350 -105 74 -263 44 -323 -62 l-22 -40 -90 0 -89 0 0 230 0 230 340 0 339
0 15 -27 c67 -130 257 -152 363 -43 43 44 56 87 51 170 -5 86 -37 138 -111
175 -112 55 -249 16 -303 -87 l-15 -28 -339 0 -340 0 0 230 0 230 93 0 92 0
20 -37 c50 -94 187 -128 293 -74 75 38 112 103 112 196 0 135 -84 218 -221
219 -57 0 -74 -4 -115 -30 -31 -18 -58 -46 -72 -72 l-23 -42 -148 0 c-209 0
-191 31 -191 -330 l0 -290 -195 0 -195 0 0 196 0 196 -27 27 c-16 14 -74 53
-131 85 -56 32 -101 60 -100 61 2 1 131 95 287 209 l283 206 464 0 c344 0 464
-3 464 -12 0 -22 52 -79 93 -100 31 -16 59 -22 107 -22 135 0 220 85 220 219
0 135 -84 218 -221 219 -57 0 -74 -4 -115 -30 -31 -18 -58 -46 -72 -72 l-23
-42 -430 0 -429 0 0 179 0 179 34 20 c125 74 136 259 22 360 -97 85 -267 58
-331 -52 -31 -53 -41 -126 -25 -184 13 -50 80 -129 116 -138 l24 -6 0 -197 -1
-196 -311 -225 c-171 -124 -314 -224 -317 -223 -4 1 -98 54 -209 118 l-202
117 0 274 0 274 119 0 c111 0 120 -1 126 -20 22 -69 109 -122 200 -122 178 0
282 182 191 336 -48 81 -157 123 -254 96 -46 -12 -127 -77 -137 -111 -6 -17
-17 -19 -126 -19 l-119 0 0 213 1 212 43 26 c64 39 101 118 93 199 -13 152
-151 243 -296 196z"/>
<path d="M2333 2871 c-21 -20 -31 -43 -160 -386 -69 -184 -74 -202 -61 -225 7
-13 26 -31 41 -40 45 -25 87 8 117 93 l10 27 109 0 c105 0 110 -1 116 -22 16
-54 38 -87 64 -98 49 -20 101 15 101 70 0 34 -200 553 -222 578 -27 28 -86 30
-115 3z"/>
<path d="M2789 2871 l-24 -19 0 -296 c0 -282 1 -296 20 -315 34 -33 68 -36
101 -8 l29 25 0 295 c0 276 -1 296 -19 316 -24 27 -76 28 -107 2z"/>
</g>
</svg>
